<svg viewBox="0 0 32 32" xml:space="preserve" xmlns="http://www.w3.org/2000/svg"><path d="m26.707 21.293-2.999-2.999a.999.999 0 0 0-1.09-.217 1 1 0 0 0-.326.217l-2.999 2.999a1 1 0 1 0 1.414 1.414L22 21.414V27a1 1 0 1 0 2 0v-5.586l1.293 1.293a.997.997 0 0 0 1.414 0 1 1 0 0 0 0-1.414z" fill="#013866" class="fill-f5d803"></path><path d="M11 9C6.184 9 1 7.748 1 5s5.184-4 10-4 10 1.252 10 4-5.184 4-10 4zm0-6C5.751 3 3 4.486 3 5s2.751 2 8 2 8-1.486 8-2-2.751-2-8-2zM11 27c-4.816 0-10-1.252-10-4a1 1 0 1 1 2 0c0 .514 2.751 2 8 2 1.878 0 3.668-.2 5.176-.58a1 1 0 1 1 .488 1.94c-1.666.418-3.624.64-5.664.64z" fill="#013866" class="fill-0181b0"></path><path d="M11 21c-4.816 0-10-1.252-10-4a1 1 0 1 1 2 0c0 .514 2.751 2 8 2 2.185 0 4.255-.272 5.832-.764a.999.999 0 1 1 .597 1.909C15.664 20.696 13.38 21 11 21zM11 15c-4.816 0-10-1.252-10-4a1 1 0 1 1 2 0c0 .514 2.751 2 8 2s8-1.486 8-2a1 1 0 1 1 2 0c0 2.748-5.184 4-10 4z" fill="#013866" class="fill-f5d803"></path><path d="M20 17.68a1 1 0 0 1-1-1V5a1 1 0 1 1 2 0v11.68a1 1 0 0 1-1 1zM2 24a1 1 0 0 1-1-1V5a1 1 0 1 1 2 0v18a1 1 0 0 1-1 1z" fill="#013866" class="fill-0181b0"></path><path d="M23 31c-4.411 0-8-3.589-8-8s3.589-8 8-8 8 3.589 8 8-3.589 8-8 8zm0-14c-3.309 0-6 2.691-6 6s2.691 6 6 6 6-2.691 6-6-2.691-6-6-6z" fill="#013866" class="fill-00acba"></path></svg>