<svg viewBox="0 0 1000 1000" xml:space="preserve" xmlns="http://www.w3.org/2000/svg" enable-background="new 0 0 1000 1000"><path d="M647.597 624.729c-9.62 5.63-22.28 10.53-37.67 14.59-30.92 8.15-71.6 12.64-114.56 12.64-42.95 0-83.63-4.49-114.55-12.64-15.4-4.06-28.06-8.96-37.67-14.59a11.34 11.34 0 0 0-.77 4.07c0 .38.03.77.07 1.15h-.07v73.5c0 21.16 61.84 38.52 140.49 40.19v22.698c-.701.117-1.402.296-2.097.54l-91.437 32.146c-6.513 2.29-9.937 9.426-7.647 15.938 2.29 6.513 9.426 9.936 15.939 7.647l85.242-29.968v42.63c0 3.45 1.4 6.57 3.66 8.84 2.27 2.26 5.39 3.66 8.84 3.66 6.91 0 12.5-5.6 12.5-12.5v-42.633l85.253 29.971c6.513 2.29 13.648-1.134 15.938-7.647 2.29-6.513-1.134-13.649-7.647-15.938l-91.437-32.146a12.57 12.57 0 0 0-2.107-.541V743.64c78.66-1.67 140.5-19.03 140.5-40.19v-73.5h-.07c.04-.38.07-.77.07-1.15 0-1.381-.26-2.731-.77-4.071zm-152.231 84.52c-6.9 0-12.5-5.6-12.5-12.5 0-6.91 5.6-12.5 12.5-12.5s12.5 5.59 12.5 12.5c0 6.9-5.599 12.5-12.5 12.5zM334.857 182.231c0-16.569-13.432-30-30-30H182.232c-16.568 0-30 13.431-30 30v4.435h182.625v-4.435z" fill="#013866" class="fill-231f20"></path><path d="M665.147 281.499c0 16.57 13.43 30 30 30h43.22v96.99c0 9.66-7.85 17.51-17.5 17.51h-97.99c-23.44 0-42.51 19.07-42.51 42.51v9.93c-21.06-3.72-45.81-6.1-72.5-6.66-4.12-.1-8.29-.14-12.5-.14-4.21 0-8.38.04-12.5.14-26.69.56-51.44 2.94-72.5 6.66v-9.93c0-23.44-19.06-42.51-42.5-42.51h-97.99c-9.65 0-17.51-7.85-17.51-17.51v-96.99h52.49c16.57 0 30-13.43 30-30v-69.83h-182.62v69.83c0 16.57 13.43 30 30 30h45.13v96.99c0 23.44 19.07 42.51 42.51 42.51h97.99c9.65 0 17.5 7.85 17.5 17.51v15.43c-26.62 7.26-42.99 17.15-42.99 28.03 0 .39.03.77.07 1.16h-.07v73.49c0 22.28 68.5 40.34 152.99 40.34 84.5 0 153-18.06 153-40.34v-73.49h-.07c.04-.39.07-.77.07-1.16 0-10.88-16.38-20.78-43-28.04v-15.42c0-9.66 7.86-17.51 17.51-17.51h97.99c23.44 0 42.5-19.07 42.5-42.51v-96.99h54.4c16.57 0 30-13.43 30-30v-69.83h-182.62v69.83zm-456.43-18.16a12.47 12.47 0 0 1-8.84 3.66h-12.67c-6.9 0-12.5-5.6-12.5-12.5 0-3.45 1.4-6.58 3.66-8.84 2.27-2.26 5.39-3.66 8.84-3.66h12.67c6.9 0 12.5 5.6 12.5 12.5 0 3.45-1.4 6.58-3.66 8.84zm16.33-8.84c0-3.45 1.4-6.58 3.66-8.84a12.47 12.47 0 0 1 8.84-3.66h62.33c6.9 0 12.5 5.6 12.5 12.5 0 3.45-1.4 6.58-3.66 8.84a12.47 12.47 0 0 1-8.84 3.66h-62.33c-4.2 0-7.91-2.07-10.18-5.24a12.43 12.43 0 0 1-2.32-7.26zm270.319 344.8c-6.9 0-12.5-5.6-12.5-12.5 0-6.91 5.6-12.5 12.5-12.5s12.5 5.59 12.5 12.5c0 6.9-5.599 12.5-12.5 12.5zm304.761-357.3h12.66c3.45 0 6.58 1.4 8.84 3.66a12.47 12.47 0 0 1 3.66 8.84c0 6.9-5.59 12.5-12.5 12.5h-12.66c-3.45 0-6.58-1.4-8.84-3.66a12.47 12.47 0 0 1-3.66-8.84c0-6.9 5.59-12.5 12.5-12.5zm-100 0h62.33c3.45 0 6.58 1.4 8.84 3.66a12.47 12.47 0 0 1 3.66 8.84c0 6.59-5.11 12-11.59 12.46-.3.03-.6.04-.91.04h-62.33c-3.45 0-6.58-1.4-8.84-3.66a12.47 12.47 0 0 1-3.66-8.84c0-6.9 5.59-12.5 12.5-12.5zM817.768 152.231H695.143c-16.568 0-30 13.431-30 30v4.435h182.625v-4.435c0-16.569-13.431-30-30-30z" fill="#013866" class="fill-231f20"></path><path d="M438.687 311.499h44.18v135.27c4.14-.09 8.31-.13 12.5-.13 4.19 0 8.36.04 12.5.13v-135.27h53.45c16.56 0 30-13.43 30-30v-69.83h-182.63v69.83c0 16.57 13.429 30 30 30zm21.31-65.84c2.26-2.26 5.38-3.66 8.84-3.66h62.33c6.9 0 12.5 5.6 12.5 12.5 0 3.45-1.4 6.58-3.66 8.84a12.488 12.488 0 0 1-8.84 3.66h-62.33c-6.91 0-12.5-5.6-12.5-12.5 0-3.45 1.4-6.58 3.66-8.84zM591.313 182.231c0-16.569-13.432-30-30-30H438.688c-16.568 0-30 13.431-30 30v4.435h182.625v-4.435z" fill="#013866" class="fill-231f20"></path></svg>