<svg viewBox="0 0 16.933 16.933" xmlns="http://www.w3.org/2000/svg"><path d="M47 2a14.925 14.925 0 0 0-12.121 6.168A2.99 2.99 0 0 0 32 6.002H6c-1.672 0-3 1.355-3 3v4c0 1.678 1.355 3 3 3h1.172a2.929 2.929 0 0 0-.174 1.008v4.002c0 .35.057.682.17.996H6.006A3.002 3.002 0 0 0 3 25.012v3.994c0 .35.057.682.17.996h-.166A1 1 0 0 0 2 30.998c0 2.311.193 3.775.635 4.86.442 1.083 1.114 1.662 1.904 2.103 1.283.686 2.534 1.062 3.846 4.143.707 1.66.842 2.72.789 3.476-.053.756-.29 1.245-.545 1.897-.299.763-.502 1.565-.17 2.562.332.997 1.089 2.003 2.51 3.395 1.42 1.391 2.476 2.133 3.447 2.435 1.074.334 1.912.06 2.56-.205.65-.265 1.147-.51 1.907-.576.76-.066 1.826.046 3.506.723 1.68.676 2.525 1.331 3.025 1.904.5.572.687 1.088.969 1.728.348.79.757 1.456 1.697 1.926.896.448 2.088.63 3.92.631 1.832-.002 3.024-.183 3.92-.63.94-.471 1.349-1.136 1.697-1.927.282-.64.469-1.156.969-1.728.5-.573 1.346-1.228 3.025-1.904 1.68-.677 2.746-.789 3.506-.723.76.066 1.257.311 1.906.576.65.265 1.487.54 2.561.205.97-.302 2.026-1.044 3.447-2.435 1.421-1.392 2.178-2.398 2.51-3.395.332-.997.129-1.799-.17-2.562-.255-.652-.492-1.14-.545-1.897-.053-.756.082-1.816.79-3.476 1.311-3.08 2.562-3.457 3.845-4.143.79-.441 1.462-1.02 1.904-2.104.442-1.084.635-2.548.635-4.859a1 1 0 0 0-1.004-.996H54.48A14.97 14.97 0 0 0 62 17c0-8.273-6.7-15-15-15zm0 2c7.16 0 13 5.808 13 13s-5.848 13-13 13a12.27 12.27 0 0 1-2.182-.186 12.907 12.907 0 0 0-.566-2.164c.885.234 1.789.35 2.748.35 6.085 0 10.998-4.937 10.998-11S53.087 6.002 47 6.002 36.002 10.937 36.002 17c0 .958.112 1.864.346 2.75a13.067 13.067 0 0 0-2.164-.564A12.225 12.225 0 0 1 34 17c0-7.192 5.84-13 13-13zM6 8.002h3v2c0 1.334 2 1.334 2 0v-2h4v2c0 1.334 2 1.334 2 0v-2h4v2c0 1.334 2 1.334 2 0v-2h4v2c0 1.334 2 1.334 2 0v-2h3a.99.99 0 0 1 1 1v2.623c-.284.742-.524 1.53-.688 2.322a.997.997 0 0 1-.312.055H6c-.571 0-1-.484-1-1v-4c0-.571.456-1 1-1zm41 0c4.955 0 8.998 4.015 8.998 8.998S51.949 25.998 47 25.998a8.913 8.913 0 0 1-4.004-.937c-1.023-1.606-2.441-3.053-4.049-4.043A8.842 8.842 0 0 1 38.002 17c0-4.983 4.043-8.998 8.998-8.998zM47 10c-.5 0-.999.333-1 .998h-1c-1.688 0-3 1.361-3 3.006V15a2.995 2.995 0 0 0 3 2.996h1v3.006h-1a.996.996 0 0 1-.996-1.004c0-1.334-2.002-1.334-2.002 0A2.995 2.995 0 0 0 45 23.002h1c.002 1.33 1.998 1.33 2 0h1c1.645 0 3-1.328 3-3.004V19a3.006 3.006 0 0 0-3-3.004h-1V13h1c.544 0 .996.433.996 1.004 0 1.334 2.002 1.334 2.002 0A3.004 3.004 0 0 0 49 10.998h-1c-.001-.665-.5-.998-1-.998zm-2 3h1v2.996h-1c-.571 0-1-.448-1-.996v-.996A.994.994 0 0 1 45 13zm-18 2.998h5.03c-.023.333-.03.664-.03 1.002 0 .684.046 1.336.135 1.996-.05 0-.084.008-.135.008a12.938 12.938 0 0 0-8.314 3.004H10.002a.993.993 0 0 1-1.004-.996L9 17.01a.997.997 0 0 1 1.002-1.008H13v2c0 1.334 2 1.334 2 0V16h4v2.002c0 1.334 2 1.334 2 0V16h4v2.002c0 1.334 2 1.334 2 0v-2.004zm21 1.998h1c.571 0 1 .46 1 1.004v.998a.994.994 0 0 1-1 1.004h-1v-3.006zm-16 3.008c6.056 0 11 4.913 11 11s-4.948 11-11 11-10.998-4.913-10.998-11 4.942-11 10.998-11zm.232 1.998-.054 1.996c.535.02 1.09.09 1.642.246l.51-1.937a8.862 8.862 0 0 0-2.098-.305zM30 23.229a8.787 8.787 0 0 0-2.121.771l.914 1.78a6.7 6.7 0 0 1 1.652-.602c-.15-.65-.303-1.323-.445-1.95zm-23.994.779H9v1.994c0 1.334 2 1.334 2 0v-1.994h4v1.994c0 1.334 2 1.334 2 0v-1.994h4.75a12.937 12.937 0 0 0-2.596 5.994H5.961a.987.987 0 0 1-.959-.996v-3.994a.995.995 0 0 1 1.004-1.004zm32.012 1.008a.995.995 0 0 0-.487.111s-1.637.819-3.38 1.742a78.88 78.88 0 0 0-2.51 1.381c-.745.431-1.258.697-1.698 1.137-1.235 1.235-1.278 3.395 0 4.674 1.279 1.278 3.437 1.235 4.672 0 .44-.44.706-.953 1.137-1.698.431-.744.92-1.647 1.38-2.52.924-1.743 1.743-3.38 1.743-3.38a1.001 1.001 0 0 0-.857-1.447zm-11.983.248a8.866 8.866 0 0 0-1.474 1.672l1.648 1.142c.322-.495.725-.94 1.16-1.318l-1.334-1.496zm-2.51 3.675a9.479 9.479 0 0 0-.484 2.188l1.998.2c.022-.545.219-1.222.38-1.712l-1.894-.676zm17.174.729-1.937.516c.176.635.224 1.188.242 1.74l1.992-.024a9.732 9.732 0 0 0-.297-2.232zm-15.623 3.4-1.972.315c.112.75.341 1.505.617 2.154l1.841-.787a7.067 7.067 0 0 1-.486-1.682zm13.72.588a6.762 6.762 0 0 1-.612 1.63l1.761.94c.37-.663.602-1.35.813-2.105l-1.961-.465zM15.632 35.39a1 1 0 0 1 .914.754A16.003 16.003 0 0 0 27.86 47.459c1.328.352.724 2.3-.515 1.926a18 18 0 0 1-12.727-12.727 1 1 0 0 1 1.012-1.27zm32.742 0a1 1 0 0 1 1.012 1.27 18 18 0 0 1-12.727 12.726c-1.24.373-1.843-1.574-.515-1.926a16.003 16.003 0 0 0 11.316-11.316 1 1 0 0 1 .914-.754zm-21.934.873-1.593 1.215a9.187 9.187 0 0 0 1.59 1.595l1.238-1.572c-.48-.348-.887-.81-1.235-1.238zm10.745.453a6.733 6.733 0 0 1-1.336 1.137l1.103 1.671c.64-.41 1.218-.937 1.71-1.464l-1.477-1.344zm-8.028 1.69-.806 1.827c.673.316 1.457.515 2.154.655l.332-1.985c-.585-.091-1.1-.26-1.68-.498zm5.131.22c-.57.203-1.154.301-1.71.357l.165 1.997c.9-.083 1.524-.25 2.2-.458l-.655-1.896z" style="line-height:normal;font-variant-ligatures:normal;font-variant-position:normal;font-variant-caps:normal;font-variant-numeric:normal;font-variant-alternates:normal;font-feature-settings:normal;text-indent:0;text-align:start;text-decoration-line:none;text-decoration-style:solid;text-decoration-color:#000;text-transform:none;text-orientation:mixed;white-space:normal;shape-padding:0;isolation:auto;mix-blend-mode:normal;solid-color:#000;solid-opacity:1" transform="scale(.26458)" color="#000000" font-style="normal" font-variant="normal" font-weight="400" font-stretch="normal" font-size="medium" font-family="sans-serif" text-decoration="none" letter-spacing="normal" word-spacing="normal" writing-mode="lr-tb" direction="ltr" dominant-baseline="auto" baseline-shift="baseline" text-anchor="start" clip-rule="nonzero" display="inline" overflow="visible" visibility="visible" opacity="1" color-interpolation="sRGB" color-interpolation-filters="linearRGB" vector-effect="none" fill="#013866" fill-opacity="1" fill-rule="nonzero" stroke="none" stroke-width="1.99999988" stroke-linecap="round" stroke-linejoin="round" stroke-miterlimit="4" stroke-dasharray="none" stroke-dashoffset="0" stroke-opacity="1" color-rendering="auto" image-rendering="auto" shape-rendering="auto" text-rendering="auto" enable-background="accumulate" class="fill-000000"></path></svg>