<svg viewBox="0 0 512 512" xml:space="preserve" xmlns="http://www.w3.org/2000/svg" enable-background="new 0 0 512 512"><path d="M256 178.747c15.929 0 28.838 12.909 28.838 28.839 0 15.928-12.909 28.84-28.838 28.84s-28.839-12.912-28.839-28.84c0-15.93 12.91-28.839 28.839-28.839m-71.93 28.839v5.17l19.897 2.962c.559 3.772 1.564 7.377 2.878 10.843l-15.733 12.519 5.17 8.944 18.723-7.352a51.837 51.837 0 0 0 7.936 7.909l-7.377 18.724 8.942 5.169 12.519-15.733a51.956 51.956 0 0 0 10.842 2.906l2.99 19.869h10.311l2.99-19.869a51.67 51.67 0 0 0 10.814-2.906l12.548 15.733 8.914-5.169-7.349-18.724a52.98 52.98 0 0 0 7.907-7.909l18.724 7.352 5.169-8.944-15.732-12.519a52.15 52.15 0 0 0 2.906-10.843l19.896-2.989v-10.312l-19.896-2.99a51.854 51.854 0 0 0-2.906-10.814l15.732-12.548-5.169-8.914-18.724 7.349a52.825 52.825 0 0 0-7.907-7.907l7.349-18.723-8.914-5.17-12.548 15.731a51.93 51.93 0 0 0-10.814-2.905l-2.99-19.896h-10.311l-2.99 19.896a52.202 52.202 0 0 0-10.842 2.905L224.506 142.7l-8.942 5.17 7.377 18.723a51.734 51.734 0 0 0-7.936 7.907l-18.723-7.349-5.17 8.914 15.733 12.548c-1.313 3.437-2.319 7.069-2.878 10.814l-19.897 2.99v5.169zm221.826-89.367c1.62-.949 3.716-.391 4.666 1.23a3.428 3.428 0 0 1-1.257 4.693l-30.544 17.634a3.444 3.444 0 0 1-4.694-1.229 3.431 3.431 0 0 1 1.258-4.695l30.571-17.633zm25.569 88.585c1.9 0 3.438 1.537 3.438 3.438s-1.537 3.437-3.438 3.437H396.17c-1.9 0-3.438-1.536-3.438-3.437s1.537-3.438 3.438-3.438h35.295zM166.661 57.69a3.446 3.446 0 0 1 1.23-4.694 3.43 3.43 0 0 1 4.695 1.257l17.632 30.573c.95 1.619.392 3.717-1.229 4.666a3.43 3.43 0 0 1-4.695-1.259L166.661 57.69zm-63.966 66.453a3.428 3.428 0 0 1-1.257-4.693 3.447 3.447 0 0 1 4.695-1.23l30.543 17.633a3.43 3.43 0 0 1 1.257 4.695c-.95 1.621-3.045 2.181-4.667 1.229l-30.571-17.634zm-22.159 89.535c-1.9 0-3.438-1.536-3.438-3.437s1.537-3.438 3.438-3.438h35.294c1.9 0 3.437 1.537 3.437 3.438s-1.537 3.437-3.437 3.437H80.536zM250.103 29.383c.028-1.873 1.565-3.381 3.466-3.381 1.872.027 3.381 1.593 3.381 3.465l-.419 30.068a3.411 3.411 0 0 1-3.465 3.381c-1.872 0-3.409-1.565-3.381-3.464l.418-30.069zM164.09 471.327c-1.9 0-3.437-1.535-3.437-3.436s1.537-3.438 3.437-3.438h125.667c1.872 0 3.438 1.537 3.438 3.438s-1.565 3.436-3.438 3.436H164.09zm65.921 14.672c-1.9 0-3.437-1.538-3.437-3.41 0-1.9 1.536-3.438 3.437-3.438h99.735c1.9 0 3.437 1.537 3.437 3.438 0 1.872-1.536 3.41-3.437 3.41h-99.735zm109.934 0c-1.9 0-3.437-1.538-3.437-3.41 0-1.9 1.536-3.438 3.437-3.438h12.491a3.424 3.424 0 0 1 0 6.848h-12.491zm-199.999-.614c-1.9 0-3.438-1.537-3.438-3.438s1.537-3.438 3.438-3.438H187.2c1.9 0 3.438 1.537 3.438 3.438s-1.537 3.438-3.438 3.438h-47.254zm40.044-138.103c1.313 0 2.655-.867 3.102-1.929 1.146-2.32-.614-4.946-3.102-4.946h-6.874c-1.286 0-2.627.839-3.074 1.929-1.146 2.291.615 4.946 3.074 4.946h6.874zm151.711 0c1.287 0 2.655-.867 3.074-1.929 1.146-2.32-.586-4.946-3.074-4.946h-6.873c-1.286 0-2.656.839-3.074 1.929-1.146 2.291.587 4.946 3.074 4.946h6.873zm27.471 0c1.285 0 2.654-.867 3.074-1.929 1.146-2.32-.588-4.946-3.074-4.946h-6.875c-1.285 0-2.654.839-3.073 1.929-1.146 2.291.586 4.946 3.073 4.946h6.875zm-213.498-6.875c-1.313 0-2.655.839-3.102 1.929-1.145 2.291.615 4.946 3.102 4.946h6.846c1.313 0 2.655-.867 3.103-1.929 1.145-2.32-.615-4.946-3.103-4.946h-6.846zm34.316-10.646c1.313 0 2.655-.839 3.102-1.929 1.146-2.291-.614-4.946-3.102-4.946h-6.874c-1.286 0-2.627.839-3.074 1.929-1.146 2.291.615 4.946 3.074 4.946h6.874zm151.711 0c1.287 0 2.655-.839 3.074-1.929 1.146-2.291-.586-4.946-3.074-4.946h-6.873c-1.286 0-2.656.839-3.074 1.929-1.146 2.291.587 4.946 3.074 4.946h6.873zm27.471 0c1.285 0 2.654-.839 3.074-1.929 1.146-2.291-.588-4.946-3.074-4.946h-6.875c-1.285 0-2.654.839-3.073 1.929-1.146 2.291.586 4.946 3.073 4.946h6.875zm-213.498-6.875c-1.313 0-2.655.839-3.102 1.929-1.145 2.291.615 4.946 3.102 4.946h6.846c1.313 0 2.655-.839 3.103-1.929 1.145-2.291-.615-4.946-3.103-4.946h-6.846zm193.74-268.633a3.432 3.432 0 0 1 4.695-1.257c1.621.949 2.18 3.047 1.258 4.694l-17.661 30.543c-.95 1.649-3.046 2.21-4.667 1.259-1.648-.949-2.207-3.047-1.257-4.666l17.632-30.573zM205.812 382.408h100.405v23.947H205.812v-23.947zm9.501 47.868h81.375V413.23h-81.375v17.046zm64.999 6.875v17.074h-48.624v-17.074h48.624zM256 96.617c62.623 0 113.398 50.775 113.398 113.399 0 38.843-19.532 73.131-49.321 93.56l-21.043 69.722c-.223.727-.363 1.481-.475 2.235H213.44a12.158 12.158 0 0 0-.448-2.235l-21.07-69.722c-29.761-20.429-49.323-54.717-49.323-93.56C142.6 147.393 193.375 96.617 256 96.617z" fill-rule="evenodd" clip-rule="evenodd" fill="#013866" class="fill-000000"></path></svg>