<svg viewBox="0 0 512 512" xml:space="preserve" xmlns="http://www.w3.org/2000/svg" enable-background="new 0 0 512 512"><path d="M279.075 226.271c-2.703-10.092-9.266-19.164-19.027-24.789-9.761-5.654-20.902-6.784-30.994-4.082-10.093 2.703-19.137 9.266-24.791 19.027-5.624 9.762-6.756 20.874-4.054 30.966 2.702 10.093 9.265 19.165 19.027 24.791 9.735 5.626 20.875 6.784 30.968 4.081 10.092-2.702 19.163-9.267 24.789-19.026a40.728 40.728 0 0 0 4.082-30.968m-15.498-30.883c11.444 6.591 19.137 17.233 22.308 29.063 3.145 11.803 1.821 24.873-4.797 36.316-6.617 11.445-17.235 19.138-29.064 22.309-11.831 3.171-24.874 1.82-36.316-4.797-11.471-6.592-19.137-17.236-22.308-29.064-3.171-11.83-1.82-24.873 4.77-36.316 6.619-11.444 17.263-19.137 29.092-22.309 11.801-3.172 24.844-1.82 36.315 4.798zm63.892 17.897c-6.039-22.476-20.627-42.66-42.382-55.207-21.729-12.547-46.521-15.109-68.994-9.072-22.473 6.012-42.658 20.627-55.206 42.356-12.546 21.755-15.11 46.519-9.098 68.991 6.038 22.475 20.625 42.687 42.382 55.232 21.729 12.549 46.519 15.084 68.993 9.074 22.474-6.012 42.658-20.627 55.205-42.355 12.574-21.757 15.111-46.519 9.1-69.019zm-38.854-61.301c23.438 13.539 39.158 35.269 45.664 59.507 6.48 24.21 3.724 50.903-9.816 74.342-13.512 23.411-35.269 39.157-59.479 45.638-24.212 6.48-50.904 3.722-74.344-9.79-23.438-13.538-39.155-35.295-45.664-59.507-6.48-24.183-3.722-50.904 9.816-74.314 13.513-23.439 35.269-39.185 59.481-45.663 24.211-6.481 50.93-3.753 74.342 9.787zM80.894 145.2l-5.24 9.073 38.522 30.691c1.241.965 1.599 2.619.993 3.997a139.232 139.232 0 0 0-4.329 13.347 129.043 129.043 0 0 0-2.979 13.897c-.219 1.519-1.405 2.62-2.839 2.841l-48.67 7.307v20.957l48.724 7.309a3.367 3.367 0 0 1 2.867 3.089 146.28 146.28 0 0 0 2.923 13.648 137.425 137.425 0 0 0 4.385 13.485c.551 1.405.083 2.949-1.047 3.86l-38.55 30.718 10.478 18.145 45.859-18.033a3.377 3.377 0 0 1 3.943 1.158 133.67 133.67 0 0 0 9.402 10.423 132.997 132.997 0 0 0 10.562 9.486 3.37 3.37 0 0 1 1.047 3.86l-18.034 45.856 18.144 10.506 30.719-38.55c.965-1.213 2.62-1.599 3.971-.993a131.531 131.531 0 0 0 13.347 4.356c4.687 1.241 9.319 2.234 13.926 2.952 1.488.22 2.592 1.405 2.813 2.839l7.335 48.697h20.929l7.334-48.752a3.397 3.397 0 0 1 3.117-2.867 129.442 129.442 0 0 0 13.622-2.923c4.604-1.214 9.1-2.702 13.455-4.386 1.436-.522 2.979-.054 3.86 1.049l30.719 38.549 18.172-10.451-18.033-45.856a3.41 3.41 0 0 1 1.131-3.971c3.584-2.867 7.087-6.038 10.451-9.402l.192-.192a133.61 133.61 0 0 0 9.294-10.342 3.359 3.359 0 0 1 3.859-1.047l45.857 18.033 10.479-18.172-38.522-30.69c-1.214-.993-1.6-2.647-.993-3.999a132.222 132.222 0 0 0 4.329-13.347 128.888 128.888 0 0 0 2.979-13.897c.221-1.488 1.406-2.62 2.813-2.813l48.726-7.335v-20.957l-48.754-7.307c-1.599-.249-2.784-1.6-2.867-3.145-.718-4.494-1.709-9.044-2.923-13.566a133.693 133.693 0 0 0-4.384-13.511 3.403 3.403 0 0 1 1.048-3.835l38.55-30.744-10.451-18.145-45.857 18.033c-1.462.552-3.088.055-3.971-1.158a134.256 134.256 0 0 0-9.403-10.451 128.434 128.434 0 0 0-10.563-9.457c-1.158-.966-1.544-2.538-1.02-3.861l18.008-45.856-18.146-10.506-30.719 38.548c-.965 1.215-2.618 1.572-3.969.994a130.765 130.765 0 0 0-13.375-4.357c-4.66-1.24-9.293-2.234-13.869-2.949-1.49-.25-2.62-1.408-2.813-2.842l-7.334-48.697h-20.957l-7.309 48.754c-.247 1.599-1.599 2.757-3.143 2.867a134.12 134.12 0 0 0-13.568 2.896c-4.661 1.24-9.154 2.729-13.512 4.385-1.405.552-2.95.083-3.86-1.05l-30.719-38.548-18.144 10.478 18.034 45.857a3.375 3.375 0 0 1-1.158 3.942c-3.611 2.952-7.114 6.068-10.423 9.403a130.64 130.64 0 0 0-9.486 10.563 3.41 3.41 0 0 1-3.887 1.047l-45.859-18.033-5.239 9.098zm160.928 105.972c1.46-.33 2.646-1.02 3.557-2.096.909-1.047 1.377-2.316 1.377-3.777 0-1.27-.386-2.399-1.158-3.311-.772-.965-2.013-1.652-3.776-2.178v11.362zm-4.22-30.856c-1.13.414-2.013 1.047-2.674 1.984-.662.938-.993 1.958-.993 3.062 0 1.02.304 1.985.911 2.868.579.854 1.516 1.571 2.757 2.094v-10.008zm-8.659 240.288c-1.875 0-3.392-1.544-3.392-3.392a3.39 3.39 0 0 1 3.392-3.392h206.675a3.39 3.39 0 0 1 3.392 3.392c0 1.848-1.516 3.392-3.392 3.392H228.943zm227.825 0c-1.874 0-3.392-1.544-3.392-3.392a3.391 3.391 0 0 1 3.392-3.392h25.839a3.392 3.392 0 0 1 3.393 3.392c0 1.848-1.519 3.392-3.393 3.392h-25.839zm-414.481-.551c-1.874 0-3.392-1.544-3.392-3.392a3.39 3.39 0 0 1 3.392-3.393h97.92a3.389 3.389 0 0 1 3.39 3.393c0 1.848-1.516 3.392-3.39 3.392h-97.92zm66.512-63.01c-3.834-2.867-7.584 2.759-4.274 5.268l5.404 4.247c3.64 2.702 7.639-2.759 4.108-5.378l-5.238-4.137zm-19.523-18.144c-3.31-3.31-7.914 1.683-4.908 4.687l4.826 4.91c3.115 3.114 7.914-1.654 4.77-4.799l-4.688-4.798zm-17.014-20.488c-2.73-3.667-8.079.497-5.46 3.972 1.325 1.848 2.702 3.749 4.138 5.515 2.592 3.474 8.079-.524 5.32-4.164l-3.998-5.323zm-14.201-22.556c-2.481-4.109-8.079-.277-5.956 3.254a176.832 176.832 0 0 0 3.39 5.983c2.344 3.915 8.081.331 5.847-3.42l-3.281-5.817zm-11.224-24.183c-1.681-4.192-7.942-1.599-6.315 2.48a345.98 345.98 0 0 0 2.593 6.37c.469 1.158 1.737 2.069 3.061 2.069 2.481 0 4.108-2.398 3.171-4.715-.883-2.04-1.709-4.136-2.51-6.204zm-7.996-25.397c-.249-1.187-1.379-2.262-2.537-2.481-2.564-.524-4.55 1.599-4.054 4.108.551 2.233 1.158 4.439 1.765 6.645.772 3.889 7.472 3.063 6.507-1.819-.579-2.152-1.185-4.302-1.681-6.453zm-4.715-26.224c-.993-5.073-7.474-2.95-6.729.771.249 2.29.553 4.578.883 6.84.965 4.77 7.501 2.979 6.701-1.021a176.175 176.175 0 0 1-.855-6.59zm-1.297-26.61c0-4.604-6.784-4.439-6.784-.11-.026 2.262-.083 4.66 0 6.894 0 4.33 6.784 4.439 6.784-.082v-6.702zm2.123-26.583c.193-.937-.193-1.792-.551-2.398-1.93-2.538-5.543-1.627-6.15 1.434-.33 2.288-.772 4.908-.909 7.17 0 3.972 5.845 4.962 6.756.414l.854-6.62zm5.57-26.057c.993-4.99-5.791-5.57-6.535-1.82l-1.765 6.646c-.937 4.743 5.791 5.652 6.591 1.627l1.709-6.453zm8.881-25.121c1.709-4.301-4.661-6.619-6.233-2.648l-2.62 6.37c-1.681 4.22 4.771 6.37 6.315 2.455l2.538-6.177zm11.139-22.254c2.262-3.75-3.557-7.225-5.873-3.363l-2.481 4.412c-2.151 3.584 3.171 6.976 5.817 3.447l2.537-4.496zm72.303 288.381c2.371 1.405 5.598-.718 5.045-3.448-.219-1.074-.688-1.846-1.653-2.425l-5.736-3.42c-3.889-2.345-7.307 3.502-3.557 5.762l5.901 3.531zM370.459 76.648c3.832 2.868 7.582-2.784 4.274-5.266a263.562 263.562 0 0 0-5.405-4.274c-3.641-2.702-7.638 2.757-4.109 5.405l5.24 4.135zm19.523 18.12c3.309 3.307 7.914-1.655 4.908-4.661-1.572-1.655-3.172-3.338-4.826-4.937-3.116-3.116-7.914 1.655-4.771 4.798l4.689 4.8zm17.014 20.486c2.757 3.695 8.079-.495 5.487-3.97-1.352-1.876-2.759-3.695-4.164-5.515-2.62-3.531-7.914.716-5.322 4.189 1.379 1.685 2.731 3.559 3.999 5.296zm14.228 22.557c2.455 4.108 8.053.305 5.93-3.253a249.79 249.79 0 0 0-3.393-5.983c-2.315-3.889-8.078-.332-5.818 3.418l3.281 5.818zm11.195 24.184c1.683 4.19 7.942 1.626 6.315-2.483a251.799 251.799 0 0 0-2.592-6.369c-.469-1.158-1.737-2.041-3.061-2.041-2.482 0-4.109 2.372-3.172 4.717l2.51 6.176zm8.024 25.397c.801 4.079 7.502 3.006 6.563-1.627-.522-2.233-1.13-4.44-1.736-6.647-.799-3.887-7.5-3.031-6.535 1.82a268.388 268.388 0 0 1 1.708 6.454zm4.689 26.251c1.02 5.019 7.472 2.924 6.729-.801a176.377 176.377 0 0 0-.883-6.81c-.966-4.8-7.5-2.978-6.7.991.329 2.207.605 4.415.854 6.62zm1.323 26.609c0 4.578 6.756 4.439 6.756.084.028-2.262.083-4.635 0-6.895 0-4.303-6.783-4.439-6.783.082l.027 6.729zm-2.151 26.555c-.826 4.109 5.958 5.543 6.702 1.075.357-2.261.771-4.991.91-7.278 0-3.971-5.847-4.965-6.756-.414l-.856 6.617zm-5.541 26.059c-1.021 4.99 5.763 5.598 6.507 1.819a193.491 193.491 0 0 0 1.765-6.645c.938-4.744-5.763-5.654-6.563-1.629l-1.709 6.455zm-8.879 25.12c-1.737 4.302 4.632 6.617 6.23 2.646l2.592-6.369c1.711-4.219-4.743-6.342-6.313-2.453l-2.509 6.176zm-11.169 22.252c-2.261 3.779 3.585 7.225 5.875 3.393l2.48-4.439c2.151-3.585-3.171-6.977-5.818-3.446l-2.537 4.492zm-72.301-288.35c-2.896-1.765-6.453 1.544-4.522 4.77.386.497.605.772 1.13 1.075l5.736 3.447c3.915 2.344 7.307-3.529 3.557-5.791l-5.901-3.501zM54.062 442.432a3.392 3.392 0 0 1 0-6.785h298.665a3.391 3.391 0 0 1 3.393 3.393 3.389 3.389 0 0 1-3.393 3.392H54.062zm183.54-191.757V238.57c-3.75-1.076-6.507-2.702-8.272-4.881-1.765-2.207-2.62-4.853-2.62-7.969 0-3.171.993-5.848 2.978-7.971 1.986-2.178 4.633-3.392 7.914-3.722v-2.867h4.22v2.867c3.088.358 5.542 1.405 7.361 3.144 1.822 1.736 3.006 4.026 3.502 6.922l-7.363.965c-.44-2.289-1.626-3.806-3.5-4.633v11.307c4.659 1.24 7.83 2.867 9.512 4.852 1.709 2.015 2.538 4.578 2.538 7.695 0 3.5-1.048 6.424-3.199 8.822-2.123 2.4-5.046 3.86-8.851 4.468v5.404h-4.22v-5.349c-3.308-.414-6.012-1.628-8.107-3.695-2.067-2.068-3.392-4.992-3.971-8.769l7.528-.882c.304 1.543.883 2.867 1.737 3.971.856 1.131 1.793 1.931 2.813 2.426z" fill-rule="evenodd" clip-rule="evenodd" fill="#013866" class="fill-000000"></path></svg>