<svg viewBox="0 0 64 64" xml:space="preserve" xmlns="http://www.w3.org/2000/svg" enable-background="new 0 0 64 64"><path d="M32 61c-3.859 0-7-3.14-7-7h-2c0 4.962 4.037 9 9 9s9-4.038 9-9h-2c0 3.86-3.141 7-7 7z" fill="#013866" class="fill-000000"></path><path d="M32 59c2.757 0 5-2.243 5-5h-2c0 1.654-1.346 3-3 3s-3-1.346-3-3h-2c0 2.757 2.243 5 5 5zM60 6h-8c-1.654 0-3 1.346-3 3v7.219l-6.279 1.57a14.55 14.55 0 0 0-4.014-7.496L38.414 10H37V8h-2v2h-2V6.816A2.996 2.996 0 0 0 35 4c0-1.654-1.346-3-3-3s-3 1.346-3 3c0 1.302.839 2.402 2 2.816V10h-2V8h-2v2h-1.414l-.293.293a14.55 14.55 0 0 0-4.014 7.496L15 16.219V9c0-1.654-1.346-3-3-3H4C2.346 6 1 7.346 1 9v26c0 1.654 1.346 3 3 3h8c1.654 0 3-1.346 3-3v-7.219l6.045-1.511a14.507 14.507 0 0 0 3.631 8.757L20 40.638V46h9.132l.736 5.151C30.019 52.206 30.936 53 32 53s1.981-.794 2.132-1.848L34.868 46H44v-5.362l-4.676-5.611a14.51 14.51 0 0 0 3.631-8.757L49 27.781V35c0 1.654 1.346 3 3 3h8c1.654 0 3-1.346 3-3V9c0-1.654-1.346-3-3-3zM32 3a1.001 1.001 0 1 1-1 1c0-.551.448-1 1-1zm29 6v3h-4V8h3c.552 0 1 .449 1 1zM51 20h4v4h-4v-4zm0-2v-4h4v4h-4zm0 8h4v4h-4v-4zm6 0h4v4h-4v-4zm0-2v-4h4v4h-4zm0-6v-4h4v4h-4zM52 8h3v4h-4V9c0-.551.448-1 1-1zm-25.577 4h11.154c.582.62 1.09 1.292 1.53 2H24.893c.439-.708.948-1.38 1.53-2zM13 18H9v-4h4v4zm0 6H9v-4h4v4zm-6-6H3v-4h4v4zm0 2v4H3v-4h4zm0 6v4H3v-4h4zm2 0h4v4H9v-4zm4-17v3H9V8h3c.552 0 1 .449 1 1zM4 8h3v4H3V9c0-.551.448-1 1-1zM3 35v-3h4v4H4c-.552 0-1-.449-1-1zm9 1H9v-4h4v3c0 .551-.448 1-1 1zm3-17.719 6.042 1.511c-.017.287-.042.574-.042.865v3.562l-6 1.5v-7.438zM26.469 36h11.063l3.334 4h-17.73l3.333-4zM37 34H27V23c0-1.654 1.346-3 3-3h4c1.654 0 3 1.346 3 3v11zm-4.849 16.869c-.021.149-.281.15-.303 0L31.153 46h1.693l-.695 4.869zM22 44v-2h20v2H22zm19-18.657c0 2.46-.7 4.811-2 6.83V23c0-2.757-2.243-5-5-5h-4c-2.757 0-5 2.243-5 5v9.174c-1.3-2.02-2-4.37-2-6.83v-4.687c0-1.62.303-3.194.881-4.657H40.12c.577 1.463.88 3.036.88 4.657v4.686zm2-1.124v-3.562c0-.291-.025-.577-.042-.865L49 18.281v7.438l-6-1.5zM51 35v-3h4v4h-3c-.552 0-1-.449-1-1zm9 1h-3v-4h4v3c0 .551-.448 1-1 1z" fill="#013866" class="fill-000000"></path><path d="M32 22c-1.654 0-3 1.346-3 3s1.346 3 3 3 3-1.346 3-3-1.346-3-3-3zm0 4a1.001 1.001 0 0 1 0-2 1.001 1.001 0 0 1 0 2zM29 30h2v2h-2zM33 30h2v2h-2z" fill="#013866" class="fill-000000"></path></svg>