<svg id="Icons" version="1.1" viewBox="0 0 32 32" xml:space="preserve" xmlns="http://www.w3.org/2000/svg" enable-background="new 0 0 32 32"><path d="m22.6 15.2-4.1-3.5c-1-.8-1.5-2-1.5-3.2V2c0-.6-.4-1-1-1s-1 .4-1 1v6.6c0 1.2-.5 2.4-1.5 3.2l-4.1 3.5c-.4.4-.5 1-.1 1.4.1.2.4.3.7.3.2 0 .5-.1.6-.2l4.1-3.5c.5-.4.9-.9 1.2-1.4.3.5.7 1 1.2 1.4l4.1 3.5c.2.2.4.2.6.2.3 0 .6-.1.8-.4.5-.4.5-1 0-1.4z" fill="#013866" class="fill-000000"></path><path d="M15 18s0-.1 0 0l-.2-2.1-2.9 2.4c-1.2 1-3.2.8-4.2-.4-.5-.6-.8-1.4-.7-2.2.1-.8.5-1.5 1.1-2l4.1-3.5c.5-.4.8-1 .8-1.7v-3c-.5-.3-1-.5-1.7-.5C7.2 5 2 13.9 2 23.4c0 3.8.5 5.6 1.7 6.3.3.2.6.3.9.3.8 0 1.7-.5 2.4-.9s1.4-.8 1.9-.8c3.9 0 6-1.3 6-8.3v-1.3c.1-.1.1-.3.1-.7zM20.8 5c-.8 0-1.3.2-1.8.6v3c0 .6.3 1.2.8 1.7l4.1 3.5c.6.5 1 1.2 1.1 2 .1.8-.2 1.6-.7 2.2-.6.6-1.4 1-2.3 1-.7 0-1.4-.2-1.9-.7l-2.9-2.4L17 18v2.1c0 6.9 2.1 8.3 6 8.3.5 0 1.3.4 1.9.8.8.4 1.6.9 2.4.9.3 0 .7-.1 1-.3 1.2-.7 1.7-2.5 1.7-6.3C30 13.9 24.8 5 20.8 5z" fill="#013866" class="fill-000000"></path></svg>